<svg width="800" height="600" viewBox="0 0 800 600" fill="none" xmlns="http://www.w3.org/2000/svg">
    <!-- Background -->
    <rect width="800" height="600" fill="#F8FAFC" />

    <!-- Grid lines -->
    <g opacity="0.1">
        <line x1="0" y1="100" x2="800" y2="100" stroke="#3B82F6" stroke-width="1" />
        <line x1="0" y1="200" x2="800" y2="200" stroke="#3B82F6" stroke-width="1" />
        <line x1="0" y1="300" x2="800" y2="300" stroke="#3B82F6" stroke-width="1" />
        <line x1="0" y1="400" x2="800" y2="400" stroke="#3B82F6" stroke-width="1" />
        <line x1="0" y1="500" x2="800" y2="500" stroke="#3B82F6" stroke-width="1" />

        <line x1="100" y1="0" x2="100" y2="600" stroke="#3B82F6" stroke-width="1" />
        <line x1="200" y1="0" x2="200" y2="600" stroke="#3B82F6" stroke-width="1" />
        <line x1="300" y1="0" x2="300" y2="600" stroke="#3B82F6" stroke-width="1" />
        <line x1="400" y1="0" x2="400" y2="600" stroke="#3B82F6" stroke-width="1" />
        <line x1="500" y1="0" x2="500" y2="600" stroke="#3B82F6" stroke-width="1" />
        <line x1="600" y1="0" x2="600" y2="600" stroke="#3B82F6" stroke-width="1" />
        <line x1="700" y1="0" x2="700" y2="600" stroke="#3B82F6" stroke-width="1" />
    </g>

    <!-- Dashboard Frame -->
    <rect x="100" y="80" width="600" height="440" rx="8" fill="white" stroke="#0F172A" stroke-width="3" />

    <!-- Top Navigation Bar -->
    <rect x="100" y="80" width="600" height="60" rx="8" fill="#0F172A" />
    <circle cx="140" cy="110" r="10" fill="#3B82F6" />
    <text x="160" y="115" font-family="Arial" font-weight="bold" font-size="16" fill="white">FinTech Dashboard</text>

    <!-- Side Navigation -->
    <rect x="100" y="140" width="120" height="380" fill="#F1F5F9" />

    <!-- Nav Items -->
    <rect x="110" y="160" width="100" height="40" rx="4" fill="#3B82F6" />
    <text x="140" y="185" font-family="Arial" font-weight="bold" font-size="12" fill="white"
        text-anchor="middle">Dashboard</text>

    <rect x="110" y="210" width="100" height="40" rx="4" fill="#F1F5F9" stroke="#E2E8F0" stroke-width="1" />
    <text x="140" y="235" font-family="Arial" font-size="12" fill="#64748B" text-anchor="middle">Analytics</text>

    <rect x="110" y="260" width="100" height="40" rx="4" fill="#F1F5F9" stroke="#E2E8F0" stroke-width="1" />
    <text x="140" y="285" font-family="Arial" font-size="12" fill="#64748B" text-anchor="middle">Investments</text>

    <rect x="110" y="310" width="100" height="40" rx="4" fill="#F1F5F9" stroke="#E2E8F0" stroke-width="1" />
    <text x="140" y="335" font-family="Arial" font-size="12" fill="#64748B" text-anchor="middle">Transactions</text>

    <!-- Main Content Area -->
    <!-- Chart 1: Line Chart -->
    <rect x="240" y="160" width="440" height="180" rx="8" fill="white" stroke="#E2E8F0" stroke-width="2" />
    <text x="260" y="185" font-family="Arial" font-weight="bold" font-size="14" fill="#0F172A">Portfolio
        Performance</text>

    <!-- Line Chart -->
    <polyline points="260,280 300,260 340,270 380,240 420,220 460,230 500,200 540,180 580,190 620,170" stroke="#3B82F6"
        stroke-width="3" fill="none" />
    <polyline points="260,280 300,290 340,270 380,280 420,260 460,270 500,250 540,260 580,240 620,230" stroke="#F43F5E"
        stroke-width="3" fill="none" opacity="0.7" />

    <!-- Chart Legend -->
    <circle cx="260" cy="310" r="5" fill="#3B82F6" />
    <text x="270" y="315" font-family="Arial" font-size="12" fill="#64748B">Stocks</text>

    <circle cx="330" cy="310" r="5" fill="#F43F5E" />
    <text x="340" y="315" font-family="Arial" font-size="12" fill="#64748B">Crypto</text>

    <!-- Chart 2: Stats Cards -->
    <rect x="240" y="360" width="210" height="140" rx="8" fill="white" stroke="#E2E8F0" stroke-width="2" />
    <text x="260" y="385" font-family="Arial" font-weight="bold" font-size="14" fill="#0F172A">Total Assets</text>
    <text x="260" y="420" font-family="Arial" font-weight="bold" font-size="24" fill="#0F172A">$1,458,200</text>
    <text x="260" y="445" font-family="Arial" font-size="14" fill="#10B981">+12.5% ↑</text>

    <rect x="470" y="360" width="210" height="140" rx="8" fill="white" stroke="#E2E8F0" stroke-width="2" />
    <text x="490" y="385" font-family="Arial" font-weight="bold" font-size="14" fill="#0F172A">Monthly Return</text>
    <text x="490" y="420" font-family="Arial" font-weight="bold" font-size="24" fill="#0F172A">$24,150</text>
    <text x="490" y="445" font-family="Arial" font-size="14" fill="#F43F5E">-2.3% ↓</text>

    <!-- Decorative Elements -->
    <circle cx="700" cy="110" r="10" fill="#F1F5F9" stroke="#E2E8F0" stroke-width="1" />
    <circle cx="670" cy="110" r="10" fill="#F1F5F9" stroke="#E2E8F0" stroke-width="1" />

    <!-- Brutalist Elements -->
    <rect x="90" y="70" width="600" height="440" rx="0" stroke="#0F172A" stroke-width="3" fill="none" />
    <rect x="80" y="60" width="600" height="440" rx="0" stroke="#0F172A" stroke-width="1" fill="none" opacity="0.5" />
</svg>