<svg width="800" height="600" viewBox="0 0 800 600" fill="none" xmlns="http://www.w3.org/2000/svg">
    <!-- Background -->
    <rect width="800" height="600" fill="#F8FAFC" />

    <!-- Grid Pattern -->
    <g opacity="0.1">
        <line x1="0" y1="100" x2="800" y2="100" stroke="#3B82F6" stroke-width="1" />
        <line x1="0" y1="200" x2="800" y2="200" stroke="#3B82F6" stroke-width="1" />
        <line x1="0" y1="300" x2="800" y2="300" stroke="#3B82F6" stroke-width="1" />
        <line x1="0" y1="400" x2="800" y2="400" stroke="#3B82F6" stroke-width="1" />
        <line x1="0" y1="500" x2="800" y2="500" stroke="#3B82F6" stroke-width="1" />

        <line x1="100" y1="0" x2="100" y2="600" stroke="#3B82F6" stroke-width="1" />
        <line x1="200" y1="0" x2="200" y2="600" stroke="#3B82F6" stroke-width="1" />
        <line x1="300" y1="0" x2="300" y2="600" stroke="#3B82F6" stroke-width="1" />
        <line x1="400" y1="0" x2="400" y2="600" stroke="#3B82F6" stroke-width="1" />
        <line x1="500" y1="0" x2="500" y2="600" stroke="#3B82F6" stroke-width="1" />
        <line x1="600" y1="0" x2="600" y2="600" stroke="#3B82F6" stroke-width="1" />
        <line x1="700" y1="0" x2="700" y2="600" stroke="#3B82F6" stroke-width="1" />
    </g>

    <!-- Main Container -->
    <rect x="100" y="100" width="600" height="400" rx="8" fill="white" stroke="#0F172A" stroke-width="3" />

    <!-- Title -->
    <text x="150" y="150" font-family="Arial" font-weight="bold" font-size="24" fill="#0F172A">Data Analytics
        Dashboard</text>
    <text x="150" y="180" font-family="Arial" font-size="14" fill="#64748B">Business Intelligence Platform</text>

    <!-- Dashboard Layout -->
    <!-- Top Stats Row -->
    <rect x="150" y="200" width="140" height="80" rx="8" fill="#F1F5F9" stroke="#3B82F6" stroke-width="2" />
    <text x="170" y="225" font-family="Arial" font-weight="bold" font-size="14" fill="#0F172A">Total Revenue</text>
    <text x="170" y="255" font-family="Arial" font-weight="bold" font-size="20" fill="#3B82F6">$1.45M</text>
    <text x="170" y="275" font-family="Arial" font-size="12" fill="#10B981">↑ 12.5%</text>

    <rect x="305" y="200" width="140" height="80" rx="8" fill="#F1F5F9" stroke="#3B82F6" stroke-width="2" />
    <text x="325" y="225" font-family="Arial" font-weight="bold" font-size="14" fill="#0F172A">Active Users</text>
    <text x="325" y="255" font-family="Arial" font-weight="bold" font-size="20" fill="#3B82F6">24.8K</text>
    <text x="325" y="275" font-family="Arial" font-size="12" fill="#10B981">↑ 8.3%</text>

    <rect x="460" y="200" width="140" height="80" rx="8" fill="#F1F5F9" stroke="#3B82F6" stroke-width="2" />
    <text x="480" y="225" font-family="Arial" font-weight="bold" font-size="14" fill="#0F172A">Conversion Rate</text>
    <text x="480" y="255" font-family="Arial" font-weight="bold" font-size="20" fill="#3B82F6">5.2%</text>
    <text x="480" y="275" font-family="Arial" font-size="12" fill="#F43F5E">↓ 1.3%</text>

    <!-- Main Chart -->
    <rect x="150" y="295" width="300" height="180" rx="8" fill="#F1F5F9" stroke="#3B82F6" stroke-width="2" />
    <text x="170" y="325" font-family="Arial" font-weight="bold" font-size="14" fill="#0F172A">Monthly
        Performance</text>

    <!-- Chart Lines -->
    <line x1="170" y1="430" x2="430" y2="430" stroke="#CBD5E1" stroke-width="1" />
    <line x1="170" y1="350" x2="170" y2="430" stroke="#CBD5E1" stroke-width="1" />

    <!-- Chart Data -->
    <polyline points="170,400 200,390 230,410 260,380 290,370 320,350 350,360 380,340 410,330" stroke="#3B82F6"
        stroke-width="3" fill="none" />
    <polyline points="170,410 200,415 230,420 260,410 290,405 320,400 350,410 380,400 410,395" stroke="#F43F5E"
        stroke-width="3" fill="none" opacity="0.7" />

    <!-- Chart Legend -->
    <circle cx="180" cy="450" r="5" fill="#3B82F6" />
    <text x="190" y="455" font-family="Arial" font-size="12" fill="#64748B">Revenue</text>

    <circle cx="250" cy="450" r="5" fill="#F43F5E" />
    <text x="260" y="455" font-family="Arial" font-size="12" fill="#64748B">Expenses</text>

    <!-- Pie Chart -->
    <rect x="460" y="295" width="140" height="180" rx="8" fill="#F1F5F9" stroke="#3B82F6" stroke-width="2" />
    <text x="480" y="325" font-family="Arial" font-weight="bold" font-size="14" fill="#0F172A">Traffic Sources</text>

    <!-- Pie Chart -->
    <circle cx="530" cy="385" r="50" fill="white" stroke="#CBD5E1" stroke-width="1" />
    <path d="M530 335 L530 385 L580 385 A50 50 0 0 0 530 335" fill="#3B82F6" />
    <path d="M530 385 L580 385 A50 50 0 0 1 530 435 Z" fill="#F43F5E" />
    <path d="M530 385 L530 435 A50 50 0 0 1 480 385 Z" fill="#10B981" />
    <path d="M530 385 L480 385 A50 50 0 0 1 530 335 Z" fill="#A855F7" />

    <!-- Pie Chart Legend -->
    <circle cx="480" cy="450" r="5" fill="#3B82F6" />
    <text x="490" y="455" font-family="Arial" font-size="10" fill="#64748B">Direct</text>

    <circle cx="540" cy="450" r="5" fill="#F43F5E" />
    <text x="550" y="455" font-family="Arial" font-size="10" fill="#64748B">Social</text>

    <circle cx="480" cy="470" r="5" fill="#10B981" />
    <text x="490" y="475" font-family="Arial" font-size="10" fill="#64748B">Organic</text>

    <circle cx="540" cy="470" r="5" fill="#A855F7" />
    <text x="550" y="475" font-family="Arial" font-size="10" fill="#64748B">Referral</text>

    <!-- Features Badge -->
    <rect x="580" y="150" width="90" height="30" rx="4" fill="#3B82F6" opacity="0.2" />
    <text x="625" y="170" font-family="Arial" font-weight="bold" font-size="12" fill="#3B82F6"
        text-anchor="middle">Real-time Data</text>

    <!-- Brutalist Elements -->
    <rect x="90" y="90" width="600" height="400" rx="0" stroke="#0F172A" stroke-width="3" fill="none" />
    <rect x="80" y="80" width="600" height="400" rx="0" stroke="#0F172A" stroke-width="1" fill="none" opacity="0.5" />

    <!-- Decorative Elements -->
    <circle cx="700" cy="150" r="30" fill="#3B82F6" opacity="0.1" />
    <circle cx="100" cy="450" r="30" fill="#3B82F6" opacity="0.1" />
</svg>