<svg width="800" height="600" viewBox="0 0 800 600" fill="none" xmlns="http://www.w3.org/2000/svg">
    <!-- Background -->
    <rect width="800" height="600" fill="#F8FAFC" />

    <!-- Grid Pattern -->
    <g opacity="0.1">
        <line x1="0" y1="100" x2="800" y2="100" stroke="#3B82F6" stroke-width="1" />
        <line x1="0" y1="200" x2="800" y2="200" stroke="#3B82F6" stroke-width="1" />
        <line x1="0" y1="300" x2="800" y2="300" stroke="#3B82F6" stroke-width="1" />
        <line x1="0" y1="400" x2="800" y2="400" stroke="#3B82F6" stroke-width="1" />
        <line x1="0" y1="500" x2="800" y2="500" stroke="#3B82F6" stroke-width="1" />

        <line x1="100" y1="0" x2="100" y2="600" stroke="#3B82F6" stroke-width="1" />
        <line x1="200" y1="0" x2="200" y2="600" stroke="#3B82F6" stroke-width="1" />
        <line x1="300" y1="0" x2="300" y2="600" stroke="#3B82F6" stroke-width="1" />
        <line x1="400" y1="0" x2="400" y2="600" stroke="#3B82F6" stroke-width="1" />
        <line x1="500" y1="0" x2="500" y2="600" stroke="#3B82F6" stroke-width="1" />
        <line x1="600" y1="0" x2="600" y2="600" stroke="#3B82F6" stroke-width="1" />
        <line x1="700" y1="0" x2="700" y2="600" stroke="#3B82F6" stroke-width="1" />
    </g>

    <!-- Main Container -->
    <rect x="100" y="100" width="600" height="400" rx="8" fill="white" stroke="#0F172A" stroke-width="3" />

    <!-- Title -->
    <text x="150" y="150" font-family="Arial" font-weight="bold" font-size="24" fill="#0F172A">Life Coach Hub</text>
    <text x="150" y="180" font-family="Arial" font-size="14" fill="#64748B">Personal Development Platform</text>

    <!-- App Interface -->
    <!-- Left Panel - Coach Profiles -->
    <rect x="150" y="200" width="240" height="260" rx="8" fill="#F1F5F9" stroke="#3B82F6" stroke-width="2" />
    <text x="170" y="230" font-family="Arial" font-weight="bold" font-size="16" fill="#0F172A">Featured Coaches</text>

    <!-- Coach 1 -->
    <rect x="170" y="250" width="200" height="60" rx="6" fill="white" stroke="#E2E8F0" stroke-width="1" />
    <circle cx="200" cy="280" r="20" fill="#3B82F6" opacity="0.2" />
    <text x="230" y="275" font-family="Arial" font-weight="bold" font-size="14" fill="#0F172A">Sarah Johnson</text>
    <text x="230" y="295" font-family="Arial" font-size="12" fill="#64748B">Career Development</text>

    <!-- Coach 2 -->
    <rect x="170" y="320" width="200" height="60" rx="6" fill="white" stroke="#E2E8F0" stroke-width="1" />
    <circle cx="200" cy="350" r="20" fill="#F43F5E" opacity="0.2" />
    <text x="230" y="345" font-family="Arial" font-weight="bold" font-size="14" fill="#0F172A">Michael Chen</text>
    <text x="230" y="365" font-family="Arial" font-size="12" fill="#64748B">Mindfulness &amp; Wellness</text>

    <!-- Coach 3 -->
    <rect x="170" y="390" width="200" height="60" rx="6" fill="white" stroke="#E2E8F0" stroke-width="1" />
    <circle cx="200" cy="420" r="20" fill="#10B981" opacity="0.2" />
    <text x="230" y="415" font-family="Arial" font-weight="bold" font-size="14" fill="#0F172A">Elena Rodriguez</text>
    <text x="230" y="435" font-family="Arial" font-size="12" fill="#64748B">Life Balance Coach</text>

    <!-- Right Panel - Booking Interface -->
    <rect x="410" y="200" width="240" height="260" rx="8" fill="#F1F5F9" stroke="#3B82F6" stroke-width="2" />
    <text x="430" y="230" font-family="Arial" font-weight="bold" font-size="16" fill="#0F172A">Book a Session</text>

    <!-- Calendar -->
    <rect x="430" y="250" width="200" height="120" rx="6" fill="white" stroke="#E2E8F0" stroke-width="1" />
    <line x1="430" y1="280" x2="630" y2="280" stroke="#E2E8F0" stroke-width="1" />
    <text x="440" y="270" font-family="Arial" font-size="12" fill="#64748B">October 2024</text>

    <!-- Calendar Days -->
    <text x="440" y="300" font-family="Arial" font-size="10" fill="#64748B">Mo</text>
    <text x="470" y="300" font-family="Arial" font-size="10" fill="#64748B">Tu</text>
    <text x="500" y="300" font-family="Arial" font-size="10" fill="#64748B">We</text>
    <text x="530" y="300" font-family="Arial" font-size="10" fill="#64748B">Th</text>
    <text x="560" y="300" font-family="Arial" font-size="10" fill="#64748B">Fr</text>
    <text x="590" y="300" font-family="Arial" font-size="10" fill="#64748B">Sa</text>
    <text x="620" y="300" font-family="Arial" font-size="10" fill="#64748B">Su</text>

    <!-- Calendar Dates -->
    <circle cx="500" cy="330" r="15" fill="#3B82F6" />
    <text x="500" y="335" font-family="Arial" font-size="12" fill="white" text-anchor="middle">12</text>

    <!-- Time Slots -->
    <rect x="430" y="380" width="95" height="35" rx="6" fill="white" stroke="#E2E8F0" stroke-width="1" />
    <text x="477" y="402" font-family="Arial" font-size="12" fill="#64748B" text-anchor="middle">10:00 AM</text>

    <rect x="535" y="380" width="95" height="35" rx="6" fill="#3B82F6" />
    <text x="582" y="402" font-family="Arial" font-size="12" fill="white" text-anchor="middle">2:00 PM</text>

    <!-- Book Button -->
    <rect x="430" y="425" width="200" height="35" rx="6" fill="#3B82F6" />
    <text x="530" y="447" font-family="Arial" font-weight="bold" font-size="14" fill="white" text-anchor="middle">Book
        Session</text>

    <!-- Stats -->
    <rect x="580" y="150" width="90" height="30" rx="4" fill="#3B82F6" opacity="0.2" />
    <text x="625" y="170" font-family="Arial" font-weight="bold" font-size="12" fill="#3B82F6" text-anchor="middle">50+
        Coaches</text>

    <!-- Brutalist Elements -->
    <rect x="90" y="90" width="600" height="400" rx="0" stroke="#0F172A" stroke-width="3" fill="none" />
    <rect x="80" y="80" width="600" height="400" rx="0" stroke="#0F172A" stroke-width="1" fill="none" opacity="0.5" />

    <!-- Decorative Elements -->
    <circle cx="700" cy="150" r="30" fill="#3B82F6" opacity="0.1" />
    <circle cx="100" cy="450" r="30" fill="#3B82F6" opacity="0.1" />
</svg>